<?xml version="1.0" encoding="UTF-8"?>
<svg enable-background="new 0 0 585.3 299.9" version="1.1" viewBox="0 0 585.3 299.9" xml:space="preserve" xmlns="http://www.w3.org/2000/svg">
<style type="text/css">
	.st0{fill:#E15200;}
	.st1{fill:#F28E2A;}
	.st2{fill:#FFFFFF;}
	.st3{fill:#EFA220;}
	.st4{fill:#F1BD4A;}
</style>
			<path class="st0" d="m241.1 299.9h-153.6c-40.3 0-73-32.7-73-73v-153.6c0-4.1 3.5-7.2 7.2-7.2h219c4.1 0 7.2 3.5 7.2 7.2v219c0.4 4.4-2.7 7.6-6.8 7.6z"/>
			<path class="st1" d="m81.9 272.5c-1.6 18.2 5.3 27.1 5.3 27.1-34.3 0-72.7-23.9-72.7-72.7 11 49.7 43.1 47.2 60.1 40.3 3.8-0.7 7.6 1.5 7.3 5.3z"/>
			<path class="st2" d="m221.6 100.4h-178.1c-2.5 0-4.4-2.2-4.4-4.4s2.2-4.4 4.4-4.4h178.1c2.5 0 4.4 2.2 4.4 4.4s-1.9 4.4-4.4 4.4z"/>
			<path class="st2" d="m221.6 119.2h-178.1c-2.5 0-4.4-2.2-4.4-4.4s2.2-4.4 4.4-4.4h178.1c2.5 0 4.4 2.2 4.4 4.4s-1.9 4.4-4.4 4.4z"/>
			<path class="st2" d="m221.6 138.1h-178.1c-2.5 0-4.4-2.2-4.4-4.4 0-2.5 2.2-4.4 4.4-4.4h178.1c2.5 0 4.4 2.2 4.4 4.4s-1.9 4.4-4.4 4.4z"/>
			<path class="st2" d="m221.6 157h-178.1c-2.5 0-4.4-2.2-4.4-4.4s2.2-4.4 4.4-4.4h178.1c2.5 0 4.4 2.2 4.4 4.4s-1.9 4.4-4.4 4.4z"/>
				<path class="st1" d="m152.4 275.6h-2.2c-0.6 0-0.9-0.3-0.9-0.9s0.3-0.9 0.9-0.9h2.2c0.6 0 0.9 0.3 0.9 0.9 0.3 0.6 0 0.9-0.9 0.9z"/>
				<path class="st1" d="m211.8 275.6h-4.1c-0.6 0-0.9-0.3-0.9-0.9s0.3-0.9 0.9-0.9h4.1c0.6 0 0.9 0.3 0.9 0.9 0.1 0.6-0.6 0.9-0.9 0.9zm-12.2 0h-3.8c-0.6 0-0.9-0.3-0.9-0.9s0.3-0.9 0.9-0.9h4.1c0.6 0 0.9 0.3 0.9 0.9s-0.3 0.9-1.2 0.9zm-11.7 0h-4.1c-0.6 0-0.9-0.3-0.9-0.9s0.3-0.9 0.9-0.9h4.1c0.6 0 0.9 0.3 0.9 0.9 0.4 0.6-0.3 0.9-0.9 0.9zm-11.9 0h-4.1c-0.6 0-0.9-0.3-0.9-0.9s0.3-0.9 0.9-0.9h4.1c0.6 0 0.9 0.3 0.9 0.9 0.3 0.6 0 0.9-0.9 0.9zm-11.7 0h-4.1c-0.6 0-0.9-0.3-0.9-0.9s0.3-0.9 0.9-0.9h4.1c0.6 0 0.9 0.3 0.9 0.9 0.4 0.6-0.2 0.9-0.9 0.9z"/>
				<path class="st1" d="m221.6 275.6h-2.2c-0.6 0-0.9-0.3-0.9-0.9s0.3-0.9 0.9-0.9h2.2c0.6 0 0.9 0.3 0.9 0.9s-0.3 0.9-0.9 0.9z"/>
			<path class="st2" d="m157.7 283.5c4.4-0.6 7.6-3.8 10.1-7.2 2.5-3.5 4.1-7.6 5.3-11.3 2.8-7.9 4.7-16.4 4.7-24.9h3.8c0.3 8.8 1.3 17.9 3.5 26.4 0.9 4.4 2.5 8.5 4.4 12.3 0.9 1.6 2.8 3.5 4.4 4.1s3.1-1.3 4.1-3.5c2.8-8.2 2.5-17.9 0.6-26.4-0.9-4.4-2.2-8.5-4.1-12.6-1.6-3.8-4.4-7.6-7.9-10.1s-7.6-3.5-11.6-3.1c-4.1 0.3-7.9 1.6-9.4 5-2.2 3.1-2.2 7.6-0.9 11.3 0.6 4.1 2.8 7.9 5 11.6 9.1 14.8 27.1 23.3 45 24.2 0 0 0.3 0 0.3 0.3 0 0 0 0.3-0.3 0.3-18.2 1.3-37.8-6.6-48.5-22.3-2.8-4.1-4.7-8.2-5.7-12.9-0.9-4.7-0.9-10.4 1.6-14.8 1.3-2.5 3.5-4.1 5.7-5 2.5-0.9 4.7-1.6 7.6-1.6 4.7-0.3 10.1 1.3 14.2 4.4 7.9 6.6 10.7 16 12 24.9 0.6 4.4 0.6 9.1 0.6 13.8-0.3 4.4-0.6 9.1-2.5 13.8-0.3 0.9-0.9 2.2-1.6 3.1-0.3 0.3-0.9 0.9-1.6 0.9-0.6 0.3-1.3 0-2.2 0-2.5-0.6-4.4-2.8-5.3-4.4-2.8-3.8-4.4-8.2-5.7-12.6-2.8-8.8-4.4-17.9-4.4-27.1 0-0.9 0.6-2.2 2.2-2.2 0.9 0 2.2 0.6 2.2 2.2 0 4.4-0.6 8.8-1.6 13.2s-2.5 8.5-4.1 12.6-3.8 8.2-6.9 11.6c-2.8 3.5-6.9 6.6-11.3 6.6-1.7-0.3-1.7-0.3-1.7-0.6z"/>
			<path class="st2" d="m76.9 211.1h-32.8c-2.2 0-3.5-1.6-3.5-3.5v-33c0-2.2 1.6-3.5 3.5-3.5h32.7c2.2 0 3.5 1.6 3.5 3.5v32.7c0 1.9-1.9 3.8-3.4 3.8z"/>
			<path class="st2" d="m155.8 211.1h-57.6c-2.2 0-3.5-1.6-3.5-3.5v-33c0-2.2 1.6-3.5 3.5-3.5h57.6c2.2 0 3.5 1.6 3.5 3.5v32.7c0.3 1.9-1.3 3.8-3.5 3.8z"/>
					<path class="st3" d="m86.3 4.1v20.8c0 1.6-1.3 3.5-3.1 3.5-1.6 0.3-3.5-0.6-4.1-2.5l-6.3-20.6c-0.6-1.6-2.5-2.8-4.4-2.5-0.9 0.3-2.2 0.6-3.1 0.6-0.9 0.3-2.2 0.6-3.1 0.9-1.6 0.6-2.8 2.8-2.5 4.4l6.3 20.5c0.6 1.6-0.3 3.5-2.2 4.1-1.6 0.6-3.8 0.3-4.7-0.9l-11.8-17.3c-0.9-1.6-3.5-2.2-5-0.9-28.4 19.8-41.3 61.9-30.3 96.9l21.7-6.6 113.3-34.7 21.7-6.6c-10.7-34.9-44.3-62.9-78.9-63.2-1.6 0.3-3.5 1.9-3.5 4.1z"/>
					<path class="st4" d="m95.4 101.9c-44.4 13.8-85.3 18.9-86.8 19.2-4.1 0.6-8.2-2.5-8.5-6.9-0.6-4.1 2.5-8.2 6.9-8.5 0.3 0 41.2-5 84.3-18.6 43.1-12.9 82.1-32.4 82.4-32.4 3.8-2.2 8.5-0.3 10.4 3.5 2.2 3.8 0.3 8.5-3.5 10.4-1.8 0.6-40.8 19.8-85.2 33.3z"/>
					<path class="st4" d="m103 15.4c4.7-5.7 33.4 9.4 41.8 24.2s-6.3 20.1-11.6 17-4.4-15.4-11.3-24.9c-8.2-10.3-23.7-10.6-18.9-16.3z"/>
	<path class="st0" d="m273.9 94.5v15.5h-9.1v-43.9h17.2c3.3 0 6.2 0.6 8.7 1.8s4.4 2.9 5.8 5.1c1.3 2.2 2 4.8 2 7.6 0 4.3-1.5 7.7-4.4 10.2s-7 3.7-12.2 3.7h-8zm0-7.3h8.1c2.4 0 4.2-0.6 5.5-1.7s1.9-2.7 1.9-4.8c0-2.2-0.6-3.9-1.9-5.2s-3-2-5.2-2.1h-8.3v13.8z"/>
	<path class="st0" d="m324.3 85.5c-1.2-0.2-2.2-0.2-3.1-0.2-3.3 0-5.5 1.1-6.5 3.3v21.4h-8.7v-32.6h8.2l0.2 3.9c1.7-3 4.2-4.5 7.3-4.5 1 0 1.9 0.1 2.7 0.4l-0.1 8.3z"/>
	<path class="st0" d="m328 93.4c0-3.2 0.6-6.1 1.9-8.7 1.2-2.5 3-4.5 5.4-5.9 2.3-1.4 5.1-2.1 8.2-2.1 4.4 0 8 1.3 10.8 4s4.3 6.4 4.7 11l0.1 2.2c0 5-1.4 9-4.2 12.1-2.8 3-6.5 4.5-11.3 4.5-4.7 0-8.5-1.5-11.3-4.5s-4.2-7.1-4.2-12.3v-0.3zm8.7 0.6c0 3.1 0.6 5.5 1.7 7.1 1.2 1.6 2.8 2.5 5 2.5 2.1 0 3.8-0.8 4.9-2.4 1.2-1.6 1.8-4.2 1.8-7.8 0-3-0.6-5.4-1.8-7.1s-2.9-2.5-5-2.5-3.8 0.8-4.9 2.5c-1.1 1.6-1.7 4.2-1.7 7.7z"/>
	<path class="st0" d="m364.8 93.4c0-5 1.2-9 3.6-12.1s5.6-4.6 9.6-4.6c3.6 0 6.4 1.2 8.4 3.7l0.4-3.1h7.9v31.6c0 2.9-0.6 5.3-1.9 7.5-1.3 2.1-3.1 3.7-5.5 4.8s-5.1 1.7-8.3 1.7c-2.4 0-4.7-0.5-7-1.4-2.3-1-4-2.2-5.2-3.7l3.9-5.3c2.2 2.4 4.8 3.7 7.9 3.7 2.3 0 4.1-0.6 5.4-1.9 1.3-1.2 1.9-3 1.9-5.3v-1.7c-2 2.3-4.7 3.4-7.9 3.4-3.9 0-7.1-1.5-9.5-4.6s-3.6-7.1-3.6-12.2v-0.5zm8.8 0.7c0 3 0.6 5.3 1.8 7s2.8 2.5 4.9 2.5c2.7 0 4.6-1 5.7-3v-13.8c-1.2-2-3-3-5.6-3-2.1 0-3.7 0.9-4.9 2.6-1.3 1.7-1.9 4.3-1.9 7.7z"/>
	<path class="st0" d="m421.6 85.5c-1.2-0.2-2.2-0.2-3.1-0.2-3.3 0-5.5 1.1-6.5 3.3v21.4h-8.7v-32.6h8.2l0.2 3.9c1.7-3 4.2-4.5 7.3-4.5 1 0 1.9 0.1 2.7 0.4l-0.1 8.3z"/>
	<path class="st0" d="m445.6 110c-0.4-0.8-0.7-1.8-0.9-2.9-2.1 2.4-4.9 3.5-8.2 3.5-3.2 0-5.8-0.9-8-2.8-2.1-1.9-3.2-4.2-3.2-7 0-3.5 1.3-6.1 3.8-8 2.6-1.9 6.3-2.8 11.1-2.8h4v-1.9c0-1.5-0.4-2.7-1.2-3.6s-2-1.4-3.7-1.4c-1.5 0-2.6 0.4-3.5 1.1-0.8 0.7-1.3 1.7-1.3 2.9h-8.7c0-1.9 0.6-3.6 1.7-5.2 1.2-1.6 2.8-2.9 4.9-3.8s4.5-1.4 7.2-1.4c4 0 7.2 1 9.6 3s3.5 4.9 3.5 8.5v14.2c0 3.1 0.5 5.4 1.3 7v0.5h-8.4zm-7.2-6.1c1.3 0 2.5-0.3 3.6-0.9s1.9-1.3 2.4-2.3v-5.6h-3.3c-4.4 0-6.7 1.5-7 4.5v0.5c0 1.1 0.4 2 1.1 2.7 0.8 0.8 1.9 1.1 3.2 1.1z"/>
	<path class="st0" d="m469.9 77.4l0.3 3.7c2.3-2.8 5.4-4.3 9.4-4.3 4.2 0 7.1 1.7 8.7 5 2.3-3.3 5.6-5 9.8-5 3.5 0 6.2 1 7.9 3.1s2.6 5.2 2.6 9.3v20.8h-8.7v-20.8c0-1.9-0.4-3.2-1.1-4.1s-2-1.3-3.8-1.3c-2.6 0-4.4 1.2-5.4 3.7v22.4h-8.7v-20.7c0-1.9-0.4-3.3-1.1-4.1s-2-1.3-3.8-1.3c-2.5 0-4.3 1-5.4 3.1v23.1h-8.7v-32.6h8z"/>
	<path class="st0" d="m536 110c-0.4-0.8-0.7-1.8-0.9-2.9-2.1 2.4-4.9 3.5-8.2 3.5-3.2 0-5.8-0.9-8-2.8-2.1-1.9-3.2-4.2-3.2-7 0-3.5 1.3-6.1 3.8-8 2.6-1.9 6.3-2.8 11.1-2.8h4v-1.9c0-1.5-0.4-2.7-1.2-3.6s-2-1.4-3.7-1.4c-1.5 0-2.6 0.4-3.5 1.1-0.8 0.7-1.3 1.7-1.3 2.9h-8.7c0-1.9 0.6-3.6 1.7-5.2 1.2-1.6 2.8-2.9 4.9-3.8s4.5-1.4 7.2-1.4c4 0 7.2 1 9.6 3s3.5 4.9 3.5 8.5v14.2c0 3.1 0.5 5.4 1.3 7v0.5h-8.4zm-7.3-6.1c1.3 0 2.5-0.3 3.6-0.9s1.9-1.3 2.4-2.3v-5.6h-3.3c-4.4 0-6.7 1.5-7 4.5v0.5c0 1.1 0.4 2 1.1 2.7 0.9 0.8 1.9 1.1 3.2 1.1z"/>
	<path class="st0" d="m291.3 156.6h-17.4v11.8h20.4v7.3h-29.4v-43.9h29.4v7.3h-20.3v10.5h17.4v7z"/>
	<path class="st0" d="m309.1 143l0.3 3.7c2.3-2.8 5.4-4.3 9.4-4.3 4.2 0 7.1 1.7 8.7 5 2.3-3.3 5.6-5 9.8-5 3.5 0 6.2 1 7.9 3.1s2.6 5.2 2.6 9.3v20.8h-8.8v-20.8c0-1.9-0.4-3.2-1.1-4.1s-2-1.3-3.8-1.3c-2.6 0-4.4 1.2-5.4 3.7v22.4h-8.7v-20.8c0-1.9-0.4-3.3-1.1-4.1s-2-1.3-3.8-1.3c-2.5 0-4.3 1-5.4 3.1v23.1h-8.7v-32.5h8.1z"/>
	<path class="st0" d="m356.2 134.6c0-1.3 0.4-2.4 1.3-3.2s2.1-1.3 3.6-1.3 2.7 0.4 3.6 1.3c0.9 0.8 1.3 1.9 1.3 3.2s-0.4 2.4-1.3 3.3c-0.9 0.8-2.1 1.3-3.5 1.3-1.5 0-2.7-0.4-3.5-1.3-1.1-0.9-1.5-2-1.5-3.3zm9.3 41.1h-8.7v-32.7h8.7v32.7z"/>
	<path class="st0" d="m392.2 166.6c0-1.1-0.5-1.9-1.6-2.5s-2.8-1.2-5.1-1.6c-7.8-1.6-11.6-4.9-11.6-9.9 0-2.9 1.2-5.3 3.6-7.3 2.4-1.9 5.5-2.9 9.4-2.9 4.1 0 7.5 1 9.9 2.9 2.5 2 3.7 4.5 3.7 7.6h-8.7c0-1.2-0.4-2.3-1.2-3.1s-2.1-1.2-3.8-1.2c-1.5 0-2.6 0.3-3.4 1s-1.2 1.5-1.2 2.5 0.5 1.7 1.4 2.3 2.5 1.1 4.6 1.5 4 0.9 5.5 1.5c4.6 1.7 6.9 4.6 6.9 8.8 0 3-1.3 5.4-3.8 7.2-2.6 1.8-5.9 2.8-9.9 2.8-2.7 0-5.2-0.5-7.3-1.5s-3.8-2.3-5-4-1.8-3.5-1.8-5.5h8.3c0.1 1.5 0.7 2.7 1.7 3.6 1.1 0.8 2.5 1.2 4.3 1.2 1.7 0 2.9-0.3 3.8-1 0.8-0.5 1.3-1.3 1.3-2.4z"/>
	<path class="st0" d="m425.8 166.6c0-1.1-0.5-1.9-1.6-2.5s-2.8-1.2-5.1-1.6c-7.8-1.6-11.6-4.9-11.6-9.9 0-2.9 1.2-5.3 3.6-7.3 2.4-1.9 5.5-2.9 9.4-2.9 4.1 0 7.5 1 9.9 2.9 2.5 2 3.7 4.5 3.7 7.6h-8.7c0-1.2-0.4-2.3-1.2-3.1s-2.1-1.2-3.8-1.2c-1.5 0-2.6 0.3-3.4 1s-1.2 1.5-1.2 2.5 0.5 1.7 1.4 2.3 2.5 1.1 4.6 1.5 4 0.9 5.5 1.5c4.6 1.7 6.9 4.6 6.9 8.8 0 3-1.3 5.4-3.8 7.2-2.6 1.8-5.9 2.8-9.9 2.8-2.7 0-5.2-0.5-7.3-1.5s-3.8-2.3-5-4-1.8-3.5-1.8-5.5h8.3c0.1 1.5 0.7 2.7 1.7 3.6 1.1 0.8 2.5 1.2 4.3 1.2 1.7 0 2.9-0.3 3.8-1 0.9-0.5 1.3-1.3 1.3-2.4z"/>
	<path class="st0" d="m440.4 159c0-3.2 0.6-6.1 1.9-8.7 1.2-2.5 3-4.5 5.4-5.9 2.3-1.4 5.1-2.1 8.2-2.1 4.4 0 8 1.3 10.8 4s4.3 6.4 4.7 11l0.1 2.2c0 5-1.4 9-4.2 12.1-2.8 3-6.5 4.5-11.3 4.5-4.7 0-8.5-1.5-11.3-4.5s-4.2-7.1-4.2-12.3v-0.3zm8.7 0.7c0 3.1 0.6 5.5 1.7 7.1 1.2 1.6 2.8 2.5 5 2.5 2.1 0 3.8-0.8 4.9-2.4 1.2-1.6 1.8-4.2 1.8-7.8 0-3-0.6-5.4-1.8-7.1s-2.9-2.5-5-2.5-3.8 0.8-4.9 2.5c-1.1 1.6-1.7 4.2-1.7 7.7z"/>
	<path class="st0" d="m496.9 151.2c-1.2-0.2-2.2-0.2-3.1-0.2-3.3 0-5.5 1.1-6.5 3.3v21.4h-8.7v-32.7h8.2l0.2 3.9c1.7-3 4.2-4.5 7.3-4.5 1 0 1.9 0.1 2.7 0.4l-0.1 8.4z"/>
	<path class="st0" d="m518.8 159.1c0-5.1 1.1-9.1 3.4-12.2 2.3-3 5.4-4.5 9.4-4.5 3.2 0 5.8 1.2 7.9 3.6v-16.7h8.7v46.3h-7.9l-0.4-3.5c-2.2 2.7-5 4.1-8.4 4.1-3.8 0-6.9-1.5-9.2-4.5s-3.5-7.2-3.5-12.6zm8.7 0.6c0 3.1 0.5 5.4 1.6 7s2.6 2.4 4.6 2.4c2.7 0 4.6-1.1 5.7-3.4v-12.9c-1.1-2.3-3-3.4-5.6-3.4-4.2 0.1-6.3 3.5-6.3 10.3z"/>
	<path class="st0" d="m571.9 176.3c-4.8 0-8.7-1.5-11.7-4.4s-4.5-6.8-4.5-11.7v-0.8c0-3.3 0.6-6.2 1.9-8.8s3.1-4.6 5.4-6 5-2.1 8-2.1c4.5 0 8 1.4 10.5 4.2 2.6 2.8 3.8 6.8 3.8 12v3.6h-20.8c0.3 2.1 1.1 3.8 2.5 5.1s3.2 1.9 5.4 1.9c3.4 0 6-1.2 7.9-3.7l4.3 4.8c-1.3 1.9-3.1 3.3-5.3 4.3-2.3 1-4.7 1.6-7.4 1.6zm-1-26.9c-1.7 0-3.1 0.6-4.2 1.8s-1.8 2.8-2.1 5h12.1v-0.7c0-1.9-0.6-3.4-1.6-4.5-1-1-2.4-1.6-4.2-1.6z"/>
	<path class="st0" d="m302.6 260.1h-19.9v39.5h-17.8v-102.7h36.1c11.8 0 21 2.7 27.4 8s9.7 13 9.7 23.1c0 6.9-1.7 12.6-5 17.2s-7.9 8.2-13.8 10.7l23 42.7v0.9h-19.1l-20.6-39.4zm-19.9-14.4h18.3c6 0 10.7-1.5 14.1-4.5s5.1-7.2 5.1-12.4c0-5.5-1.6-9.7-4.7-12.8-3.1-3-7.8-4.6-14-4.7h-18.8v34.4z"/>
	<path class="st0" d="m377.1 261.5v38.1h-17.8v-102.7h39.3c11.5 0 20.6 3 27.3 9s10.1 13.9 10.1 23.7c0 10.1-3.3 17.9-9.9 23.5s-15.8 8.4-27.7 8.4h-21.3zm0-14.4h21.4c6.3 0 11.2-1.5 14.5-4.5s5-7.3 5-12.9c0-5.5-1.7-10-5.1-13.3s-8-5-14-5.1h-21.9v35.8z"/>
	<path class="st0" d="m500.7 275.6h-39.7l-8.3 23.9h-18.5l38.8-102.6h16l38.8 102.6h-18.6l-8.5-23.9zm-34.7-14.3h29.7l-14.9-42.6-14.8 42.6z"/>
</svg>
