<?xml version="1.0" encoding="UTF-8"?>
<svg enable-background="new 0 0 869 144.1" version="1.1" viewBox="0 0 869 144.1" xml:space="preserve" xmlns="http://www.w3.org/2000/svg">
<style type="text/css">
	.st0{fill:#E15200;}
	.st1{fill:#FFFFFF;}
</style>
		<path class="st0" d="M869,75.1H44.5c-14.4,0-27.1-9.7-30.8-23.6L0,0h824.5c14.4,0,27.1,9.7,30.8,23.6L869,75.1z"/>
		<path d="M72.5,39.4H56.6v11.9h18.6v5.4H49.9V18H75v5.4H56.6v10.7h15.9V39.4z"/>
		<path d="m83.5 56.7v-24h-4.4v-4.7h4.4v-2.6c0-3.2 0.9-5.7 2.7-7.4s4.3-2.6 7.4-2.6c1.1 0 2.3 0.2 3.6 0.5l-0.2 5c-0.7-0.1-1.5-0.2-2.5-0.2-3.1 0-4.6 1.6-4.6 4.8v2.5h5.9v4.8h-5.9v24h-6.4z"/>
		<path d="m102.2 20.5c0-1 0.3-1.8 0.9-2.5s1.5-1 2.7-1 2.1 0.3 2.7 1 1 1.5 1 2.5-0.3 1.8-1 2.4c-0.6 0.6-1.5 1-2.7 1s-2.1-0.3-2.7-1c-0.6-0.6-0.9-1.4-0.9-2.4zm6.8 36.2h-6.5v-28.7h6.5v28.7z"/>
		<path d="m129.5 52.1c1.6 0 3-0.5 4-1.4 1.1-0.9 1.6-2.1 1.7-3.5h6.1c-0.1 1.8-0.6 3.5-1.7 5-1 1.6-2.5 2.8-4.3 3.7s-3.7 1.4-5.8 1.4c-4 0-7.2-1.3-9.6-3.9s-3.5-6.2-3.5-10.8v-0.7c0-4.4 1.2-7.9 3.5-10.5s5.5-4 9.6-4c3.4 0 6.2 1 8.4 3s3.3 4.6 3.4 7.9h-6.1c-0.1-1.6-0.6-3-1.7-4.1s-2.4-1.6-4-1.6c-2.1 0-3.7 0.8-4.8 2.3s-1.7 3.8-1.7 6.9v1c0 3.1 0.6 5.4 1.7 7 1.1 1.5 2.7 2.3 4.8 2.3z"/>
		<path d="m165 56.7c-0.3-0.5-0.5-1.4-0.7-2.7-2.1 2.1-4.6 3.2-7.6 3.2-2.9 0-5.2-0.8-7.1-2.5s-2.7-3.7-2.7-6.1c0-3.1 1.1-5.4 3.4-7.1 2.3-1.6 5.5-2.5 9.8-2.5h4v-1.9c0-1.5-0.4-2.7-1.3-3.6-0.8-0.9-2.1-1.3-3.8-1.3-1.5 0-2.7 0.4-3.6 1.1s-1.4 1.7-1.4 2.8h-6.5c0-1.6 0.5-3.1 1.6-4.4 1-1.4 2.5-2.5 4.3-3.2s3.8-1.2 6-1.2c3.4 0 6.1 0.8 8.1 2.5s3 4.1 3.1 7.1v13c0 2.6 0.4 4.7 1.1 6.2v0.5h-6.7zm-7.1-4.6c1.3 0 2.5-0.3 3.6-0.9s2-1.5 2.5-2.5v-5.4h-3.5c-2.4 0-4.2 0.4-5.4 1.3-1.2 0.8-1.8 2-1.8 3.5 0 1.2 0.4 2.2 1.2 3 0.9 0.6 2.1 1 3.4 1z"/>
		<path d="M185.8,51.6h15.3v5.2h-23.4v-4.2l14.6-19.3h-14.3V28h22.5v4.1L185.8,51.6z"/>
		<path d="m248.4 42.6c0 4.5-1 8-3 10.7s-4.7 4-8.1 4c-3.2 0-5.7-1-7.6-3.1v13.6h-6.5v-39.8h6l0.3 2.9c1.9-2.3 4.5-3.5 7.7-3.5 3.5 0 6.3 1.3 8.3 3.9s3 6.2 3 10.9v0.4zm-6.5-0.5c0-2.9-0.6-5.2-1.7-6.8s-2.8-2.5-4.9-2.5c-2.6 0-4.5 1.1-5.7 3.3v12.8c1.2 2.2 3.1 3.4 5.7 3.4 2.1 0 3.7-0.8 4.8-2.5 1.3-1.8 1.8-4.4 1.8-7.7z"/>
		<path d="m272.7 56.7c-0.3-0.5-0.5-1.4-0.7-2.7-2.1 2.1-4.6 3.2-7.6 3.2-2.9 0-5.2-0.8-7.1-2.5-1.8-1.6-2.7-3.7-2.7-6.1 0-3.1 1.1-5.4 3.4-7.1 2.3-1.6 5.5-2.5 9.8-2.5h4v-1.9c0-1.5-0.4-2.7-1.3-3.6-0.8-0.9-2.1-1.3-3.8-1.3-1.5 0-2.7 0.4-3.6 1.1s-1.4 1.7-1.4 2.8h-6.5c0-1.6 0.5-3.1 1.6-4.4 1-1.4 2.5-2.5 4.3-3.2s3.8-1.2 6-1.2c3.4 0 6.1 0.8 8.1 2.5s3 4.1 3.1 7.1v13c0 2.6 0.4 4.7 1.1 6.2v0.5h-6.7zm-7.1-4.6c1.3 0 2.5-0.3 3.6-0.9s2-1.5 2.5-2.5v-5.4h-3.5c-2.4 0-4.2 0.4-5.4 1.3-1.2 0.8-1.8 2-1.8 3.5 0 1.2 0.4 2.2 1.2 3 0.9 0.6 2 1 3.4 1z"/>
		<path d="m301.7 33.9c-0.9-0.1-1.7-0.2-2.6-0.2-3 0-5 1.1-6 3.4v19.7h-6.5v-28.8h6.2l0.2 3.2c1.6-2.5 3.7-3.8 6.5-3.8 0.9 0 1.7 0.1 2.3 0.4l-0.1 6.1z"/>
		<path d="m323.8 56.7c-0.3-0.5-0.5-1.4-0.7-2.7-2.1 2.1-4.6 3.2-7.6 3.2-2.9 0-5.2-0.8-7.1-2.5s-2.7-3.7-2.7-6.1c0-3.1 1.1-5.4 3.4-7.1 2.3-1.6 5.5-2.5 9.8-2.5h4v-1.9c0-1.5-0.4-2.7-1.3-3.6-0.8-0.9-2.1-1.3-3.8-1.3-1.5 0-2.7 0.4-3.6 1.1s-1.4 1.7-1.4 2.8h-6.5c0-1.6 0.5-3.1 1.6-4.4 1-1.4 2.5-2.5 4.3-3.2s3.8-1.2 6-1.2c3.4 0 6.1 0.8 8.1 2.5s3 4.1 3.1 7.1v13c0 2.6 0.4 4.7 1.1 6.2v0.5h-6.7zm-7.1-4.6c1.3 0 2.5-0.3 3.6-0.9s2-1.5 2.5-2.5v-5.4h-3.5c-2.4 0-4.2 0.4-5.4 1.3-1.2 0.8-1.8 2-1.8 3.5 0 1.2 0.4 2.2 1.2 3 0.9 0.6 2 1 3.4 1z"/>
		<path d="m351.7 42.1c0-2.8 0.6-5.4 1.7-7.6 1.1-2.3 2.7-4 4.7-5.2s4.3-1.8 7-1.8c3.9 0 7 1.3 9.5 3.8 2.4 2.5 3.7 5.8 3.9 9.9v1.5c0 2.8-0.5 5.4-1.6 7.6s-2.7 4-4.7 5.2-4.4 1.8-7 1.8c-4.1 0-7.3-1.4-9.7-4.1s-3.7-6.3-3.7-10.8v-0.3zm6.4 0.5c0 3 0.6 5.3 1.8 7s2.9 2.5 5.1 2.5 3.9-0.9 5.1-2.6 1.8-4.2 1.8-7.5c0-2.9-0.6-5.2-1.9-6.9s-2.9-2.6-5.1-2.6c-2.1 0-3.8 0.8-5 2.5-1.2 1.8-1.8 4.3-1.8 7.6z"/>
		<path d="m412.5 52.1c1.6 0 3-0.5 4-1.4 1.1-0.9 1.6-2.1 1.7-3.5h6.1c-0.1 1.8-0.6 3.5-1.7 5-1 1.6-2.5 2.8-4.3 3.7s-3.7 1.4-5.8 1.4c-4 0-7.2-1.3-9.6-3.9s-3.5-6.2-3.5-10.8v-0.7c0-4.4 1.2-7.9 3.5-10.5s5.5-4 9.6-4c3.4 0 6.2 1 8.4 3s3.3 4.6 3.4 7.9h-6.1c-0.1-1.6-0.6-3-1.7-4.1s-2.4-1.6-4-1.6c-2.1 0-3.7 0.8-4.8 2.3s-1.7 3.8-1.7 6.9v1c0 3.1 0.6 5.4 1.7 7 1.1 1.5 2.7 2.3 4.8 2.3z"/>
		<path d="m429.7 42.1c0-2.8 0.6-5.4 1.7-7.6 1.1-2.3 2.7-4 4.7-5.2s4.3-1.8 7-1.8c3.9 0 7 1.3 9.5 3.8 2.4 2.5 3.7 5.8 3.9 9.9v1.5c0 2.8-0.5 5.4-1.6 7.6s-2.7 4-4.7 5.2-4.4 1.8-7 1.8c-4.1 0-7.3-1.4-9.7-4.1s-3.7-6.3-3.7-10.8v-0.3zm6.4 0.5c0 3 0.6 5.3 1.8 7s2.9 2.5 5.1 2.5 3.9-0.9 5.1-2.6 1.8-4.2 1.8-7.5c0-2.9-0.6-5.2-1.9-6.9s-2.9-2.6-5.1-2.6c-2.1 0-3.8 0.8-5 2.5-1.2 1.8-1.8 4.3-1.8 7.6z"/>
		<path d="m469.5 28l0.2 3.3c2.1-2.6 4.9-3.9 8.4-3.9 6 0 9 3.4 9.1 10.3v19h-6.5v-18.6c0-1.8-0.4-3.2-1.2-4.1s-2.1-1.3-3.9-1.3c-2.6 0-4.5 1.2-5.8 3.5v20.5h-6.5v-28.7h6.2z"/>
		<path d="m503.5 21v7h5.1v4.8h-5.1v16.1c0 1.1 0.2 1.9 0.7 2.4 0.4 0.5 1.2 0.7 2.3 0.7 0.7 0 1.5-0.1 2.3-0.3v5c-1.5 0.4-2.9 0.6-4.3 0.6-5 0-7.4-2.7-7.4-8.2v-16.4h-4.7v-4.7h4.7v-7h6.4z"/>
		<path d="m530.3 33.9c-0.9-0.1-1.7-0.2-2.6-0.2-3 0-5 1.1-6 3.4v19.7h-6.5v-28.8h6.2l0.2 3.2c1.6-2.5 3.7-3.8 6.5-3.8 0.9 0 1.7 0.1 2.3 0.4l-0.1 6.1z"/>
		<path d="m533.8 42.1c0-2.8 0.6-5.4 1.7-7.6 1.1-2.3 2.7-4 4.7-5.2s4.3-1.8 7-1.8c3.9 0 7 1.3 9.5 3.8 2.4 2.5 3.7 5.8 3.9 9.9v1.5c0 2.8-0.5 5.4-1.6 7.6s-2.7 4-4.7 5.2-4.4 1.8-7 1.8c-4.1 0-7.3-1.4-9.7-4.1s-3.7-6.3-3.7-10.8v-0.3zm6.5 0.5c0 3 0.6 5.3 1.8 7s2.9 2.5 5.1 2.5 3.9-0.9 5.1-2.6 1.8-4.2 1.8-7.5c0-2.9-0.6-5.2-1.9-6.9s-2.9-2.6-5.1-2.6c-2.1 0-3.8 0.8-5 2.5-1.2 1.8-1.8 4.3-1.8 7.6z"/>
		<path d="M574.5,56.7h-6.5V15.9h6.5V56.7z"/>
		<path d="m595.9 57.3c-4.1 0-7.4-1.3-10-3.9-2.5-2.6-3.8-6-3.8-10.3v-0.8c0-2.9 0.6-5.4 1.7-7.7s2.7-4 4.7-5.3 4.2-1.9 6.7-1.9c3.9 0 6.9 1.3 9.1 3.8s3.2 6 3.2 10.6v2.6h-18.8c0.2 2.4 1 4.3 2.4 5.6 1.4 1.4 3.1 2.1 5.3 2.1 3 0 5.4-1.2 7.2-3.6l3.5 3.3c-1.2 1.7-2.7 3.1-4.6 4s-4.2 1.5-6.6 1.5zm-0.8-24.7c-1.8 0-3.2 0.6-4.3 1.9-1.1 1.2-1.8 3-2.1 5.2h12.3v-0.5c-0.1-2.2-0.7-3.8-1.7-4.9s-2.4-1.7-4.2-1.7z"/>
		<path d="m629.3 20.5c0-1 0.3-1.8 0.9-2.5s1.5-1 2.7-1 2.1 0.3 2.7 1 1 1.5 1 2.5-0.3 1.8-1 2.4-1.5 1-2.7 1-2.1-0.3-2.7-1c-0.6-0.6-0.9-1.4-0.9-2.4zm6.9 36.2h-6.5v-28.7h6.5v28.7z"/>
		<path d="m650.8 28l0.2 3.3c2.1-2.6 4.9-3.9 8.4-3.9 6 0 9 3.4 9.1 10.3v19h-6.5v-18.6c0-1.8-0.4-3.2-1.2-4.1s-2.1-1.3-3.9-1.3c-2.6 0-4.5 1.2-5.8 3.5v20.5h-6.5v-28.7h6.2z"/>
		<path d="m684.9 21v7h5.1v4.8h-5.1v16.1c0 1.1 0.2 1.9 0.7 2.4 0.4 0.5 1.2 0.7 2.3 0.7 0.7 0 1.5-0.1 2.3-0.3v5c-1.5 0.4-2.9 0.6-4.3 0.6-5 0-7.4-2.7-7.4-8.2v-16.4h-4.7v-4.7h4.7v-7h6.4z"/>
		<path d="m709.2 57.3c-4.1 0-7.4-1.3-10-3.9-2.5-2.6-3.8-6-3.8-10.3v-0.8c0-2.9 0.6-5.4 1.7-7.7s2.7-4 4.7-5.3 4.2-1.9 6.7-1.9c3.9 0 6.9 1.3 9.1 3.8s3.2 6 3.2 10.6v2.6h-18.8c0.2 2.4 1 4.3 2.4 5.6 1.4 1.4 3.1 2.1 5.3 2.1 3 0 5.4-1.2 7.2-3.6l3.5 3.3c-1.2 1.7-2.7 3.1-4.6 4s-4.2 1.5-6.6 1.5zm-0.8-24.7c-1.8 0-3.2 0.6-4.3 1.9-1.1 1.2-1.8 3-2.1 5.2h12.3v-0.5c-0.1-2.2-0.7-3.8-1.7-4.9s-2.4-1.7-4.2-1.7z"/>
		<path d="m742.4 33.9c-0.9-0.1-1.7-0.2-2.6-0.2-3 0-5 1.1-6 3.4v19.7h-6.5v-28.8h6.2l0.2 3.2c1.6-2.5 3.7-3.8 6.5-3.8 0.9 0 1.7 0.1 2.3 0.4l-0.1 6.1z"/>
		<path d="m754.1 28l0.2 3.3c2.1-2.6 4.9-3.9 8.4-3.9 6 0 9 3.4 9.1 10.3v19h-6.5v-18.6c0-1.8-0.4-3.2-1.2-4.1s-2.1-1.3-3.9-1.3c-2.6 0-4.5 1.2-5.8 3.5v20.5h-6.5v-28.7h6.2z"/>
		<path d="m778.9 42.1c0-2.8 0.6-5.4 1.7-7.6 1.1-2.3 2.7-4 4.7-5.2s4.3-1.8 7-1.8c3.9 0 7 1.3 9.5 3.8 2.4 2.5 3.7 5.8 3.9 9.9v1.5c0 2.8-0.5 5.4-1.6 7.6s-2.7 4-4.7 5.2-4.4 1.8-7 1.8c-4.1 0-7.3-1.4-9.7-4.1s-3.7-6.3-3.7-10.8v-0.3zm6.4 0.5c0 3 0.6 5.3 1.8 7s2.9 2.5 5.1 2.5 3.9-0.9 5.1-2.6 1.8-4.2 1.8-7.5c0-2.9-0.6-5.2-1.9-6.9s-2.9-2.6-5.1-2.6c-2.1 0-3.8 0.8-5 2.5-1.1 1.8-1.8 4.3-1.8 7.6z"/>
		<path d="m813.6 65.5l-3.5-2.1c1-1.6 1.7-3 2.1-4.2s0.6-2.4 0.6-3.7v-5h5.8v4.7c0 1.9-0.5 3.8-1.4 5.7s-2.1 3.3-3.6 4.6z"/>
		<path class="st1" d="m162.5 118.9c0 4.5-1 8-3 10.7-2 2.6-4.6 4-8 4-3.9 0-7-1.4-9-4.1v14.7h-3.2v-39.8h3l0.2 4.1c2.1-3.1 5.1-4.6 9-4.6 3.4 0 6.1 1.3 8.1 3.9s2.9 6.2 2.9 10.9v0.2zm-3.2-0.6c0-3.7-0.8-6.6-2.3-8.7s-3.6-3.2-6.3-3.2c-2 0-3.6 0.5-5 1.4s-2.5 2.3-3.2 4.1v13.8c0.8 1.6 1.9 2.9 3.3 3.8s3.1 1.3 5 1.3c2.7 0 4.8-1.1 6.3-3.2s2.2-5.2 2.2-9.3z"/>
		<path class="st1" d="m184.5 106.9c-0.7-0.1-1.4-0.2-2.2-0.2-2 0-3.7 0.6-5 1.7s-2.4 2.7-2.9 4.8v19.8h-3.2v-28.8h3.1l0.1 4.6c1.7-3.4 4.4-5.1 8.1-5.1 0.9 0 1.6 0.1 2.1 0.3l-0.1 2.9z"/>
		<path class="st1" d="m208.3 133c-0.3-0.9-0.5-2.2-0.6-4-1.1 1.5-2.5 2.6-4.3 3.4s-3.6 1.2-5.5 1.2c-2.8 0-5-0.8-6.7-2.3s-2.6-3.5-2.6-5.9c0-2.8 1.2-5 3.5-6.6s5.6-2.4 9.7-2.4h5.8v-3.4c0-2.1-0.6-3.7-1.9-4.9s-3.1-1.8-5.5-1.8c-2.2 0-4.1 0.6-5.5 1.7s-2.2 2.5-2.2 4.1h-3.2c0-2.3 1.1-4.3 3.2-5.9 2.1-1.7 4.7-2.5 7.8-2.5 3.2 0 5.7 0.8 7.6 2.4s2.8 3.8 2.9 6.7v13.6c0 2.8 0.3 4.9 0.9 6.2v0.3h-3.4zm-10-2.3c2.1 0 4-0.5 5.7-1.5s2.9-2.4 3.7-4.1v-6.3h-5.7c-3.2 0-5.7 0.6-7.4 1.7s-2.7 2.7-2.7 4.6c0 1.6 0.6 3 1.8 4 1.1 1.1 2.7 1.6 4.6 1.6zm6.2-38.6h3.9l-6.1 7.4h-2.8l5-7.4z"/>
		<path class="st1" d="m225.9 96.9v7.4h6v2.6h-6v19.1c0 1.6 0.3 2.8 0.9 3.6s1.5 1.2 2.9 1.2c0.5 0 1.4-0.1 2.6-0.3l0.1 2.6c-0.8 0.3-2 0.4-3.4 0.4-2.2 0-3.8-0.6-4.8-1.9s-1.5-3.1-1.5-5.6v-19.2h-5.3v-2.6h5.3v-7.4h3.2z"/>
		<path class="st1" d="m239.9 95.9c0-0.6 0.2-1.1 0.6-1.5s0.9-0.6 1.6-0.6 1.2 0.2 1.6 0.6 0.6 0.9 0.6 1.5-0.2 1.1-0.6 1.5-0.9 0.6-1.6 0.6-1.2-0.2-1.6-0.6-0.6-0.9-0.6-1.5zm3.7 37.1h-3.2v-28.8h3.2v28.8z"/>
		<path class="st1" d="m264.5 130.8c2.2 0 4.1-0.6 5.6-1.9 1.5-1.2 2.3-2.9 2.4-4.9h3.1c-0.1 1.8-0.6 3.4-1.6 4.8s-2.4 2.6-4 3.4-3.5 1.2-5.4 1.2c-3.8 0-6.8-1.3-9-3.9s-3.3-6.2-3.3-10.6v-1c0-2.8 0.5-5.3 1.5-7.5s2.4-3.9 4.3-5.1 4-1.8 6.5-1.8c3.2 0 5.8 0.9 7.8 2.8s3.1 4.4 3.3 7.4h-3.1c-0.1-2.3-1-4.1-2.4-5.5s-3.3-2.1-5.6-2.1c-2.9 0-5.1 1-6.7 3.1s-2.4 5-2.4 8.7v0.9c0 3.7 0.8 6.5 2.4 8.6 1.5 2.4 3.7 3.4 6.6 3.4z"/>
		<path class="st1" d="m281.8 118.2c0-2.8 0.5-5.3 1.6-7.5s2.6-3.9 4.5-5.2c2-1.2 4.2-1.8 6.7-1.8 3.8 0 6.9 1.3 9.3 4s3.6 6.2 3.6 10.7v0.7c0 2.8-0.5 5.3-1.6 7.5s-2.6 3.9-4.5 5.1-4.2 1.8-6.7 1.8c-3.8 0-6.9-1.3-9.3-4s-3.6-6.2-3.6-10.7v-0.6zm3.2 0.9c0 3.4 0.9 6.3 2.7 8.5s4.1 3.3 7 3.3 5.2-1.1 7-3.3 2.7-5.1 2.7-8.7v-0.6c0-2.2-0.4-4.2-1.2-6s-2-3.2-3.4-4.2c-1.5-1-3.2-1.5-5.1-1.5-2.8 0-5.2 1.1-6.9 3.3s-2.7 5.1-2.7 8.7v0.5z"/>
		<path class="st1" d="m353.8 118.9c0 4.5-1 8-3 10.7-2 2.6-4.6 4-8 4-3.9 0-7-1.4-9-4.1v14.7h-3.2v-39.8h3l0.2 4.1c2.1-3.1 5.1-4.6 9-4.6 3.4 0 6.1 1.3 8.1 3.9s2.9 6.2 2.9 10.9v0.2zm-3.2-0.6c0-3.7-0.8-6.6-2.3-8.7s-3.6-3.2-6.3-3.2c-2 0-3.6 0.5-5 1.4s-2.5 2.3-3.2 4.1v13.8c0.8 1.6 1.9 2.9 3.3 3.8s3.1 1.3 5 1.3c2.7 0 4.8-1.1 6.3-3.2 1.4-2.1 2.2-5.2 2.2-9.3z"/>
		<path class="st1" d="m380.6 133c-0.3-0.9-0.5-2.2-0.6-4-1.1 1.5-2.5 2.6-4.3 3.4s-3.6 1.2-5.5 1.2c-2.8 0-5-0.8-6.7-2.3s-2.6-3.5-2.6-5.9c0-2.8 1.2-5 3.5-6.6s5.6-2.4 9.7-2.4h5.8v-3.4c0-2.1-0.6-3.7-1.9-4.9s-3.1-1.8-5.5-1.8c-2.2 0-4.1 0.6-5.5 1.7s-2.2 2.5-2.2 4.1h-3.2c0-2.3 1.1-4.3 3.2-5.9 2.1-1.7 4.7-2.5 7.8-2.5 3.2 0 5.7 0.8 7.6 2.4s2.8 3.8 2.9 6.7v13.6c0 2.8 0.3 4.9 0.9 6.2v0.3h-3.4zm-10-2.3c2.1 0 4-0.5 5.7-1.5s2.9-2.4 3.7-4.1v-6.3h-5.7c-3.2 0-5.7 0.6-7.4 1.7s-2.7 2.7-2.7 4.6c0 1.6 0.6 3 1.8 4 1.1 1.1 2.7 1.6 4.6 1.6z"/>
		<path class="st1" d="m406.5 106.9c-0.7-0.1-1.4-0.2-2.2-0.2-2 0-3.7 0.6-5 1.7-1.4 1.1-2.4 2.7-2.9 4.8v19.8h-3.2v-28.8h3.1l0.1 4.6c1.7-3.4 4.4-5.1 8.1-5.1 0.9 0 1.6 0.1 2.1 0.3l-0.1 2.9z"/>
		<path class="st1" d="m430.3 133c-0.3-0.9-0.5-2.2-0.6-4-1.1 1.5-2.5 2.6-4.3 3.4-1.7 0.8-3.6 1.2-5.5 1.2-2.8 0-5-0.8-6.7-2.3s-2.6-3.5-2.6-5.9c0-2.8 1.2-5 3.5-6.6s5.6-2.4 9.7-2.4h5.8v-3.4c0-2.1-0.6-3.7-1.9-4.9s-3.1-1.8-5.5-1.8c-2.2 0-4.1 0.6-5.5 1.7-1.5 1.1-2.2 2.5-2.2 4.1h-3.2c0-2.3 1.1-4.3 3.2-5.9s4.7-2.5 7.8-2.5c3.2 0 5.7 0.8 7.6 2.4s2.8 3.8 2.9 6.7v13.6c0 2.8 0.3 4.9 0.9 6.2v0.3h-3.4zm-10-2.3c2.1 0 4-0.5 5.7-1.5s2.9-2.4 3.7-4.1v-6.3h-5.7c-3.2 0-5.7 0.6-7.4 1.7s-2.7 2.7-2.7 4.6c0 1.6 0.6 3 1.8 4 1.1 1.1 2.7 1.6 4.6 1.6z"/>
		<path class="st1" d="m456.1 118.2c0-2.8 0.5-5.3 1.6-7.5s2.6-3.9 4.5-5.2c2-1.2 4.2-1.8 6.7-1.8 3.8 0 6.9 1.3 9.3 4s3.6 6.2 3.6 10.7v0.7c0 2.8-0.5 5.3-1.6 7.5s-2.6 3.9-4.5 5.1c-2 1.2-4.2 1.8-6.7 1.8-3.8 0-6.9-1.3-9.3-4s-3.6-6.2-3.6-10.7v-0.6zm3.2 0.9c0 3.4 0.9 6.3 2.7 8.5s4.1 3.3 7 3.3 5.2-1.1 7-3.3 2.7-5.1 2.7-8.7v-0.6c0-2.2-0.4-4.2-1.2-6s-2-3.2-3.4-4.2c-1.5-1-3.2-1.5-5.1-1.5-2.8 0-5.2 1.1-6.9 3.3s-2.7 5.1-2.7 8.7v0.5z"/>
		<path class="st1" d="m503.6 118.3c0-4.5 1-8 3-10.7s4.7-4 8.1-4c3.9 0 6.8 1.5 8.9 4.6v-16.1h3.2v40.9h-3l-0.1-3.8c-2 2.9-5 4.4-9 4.4-3.3 0-6-1.3-8-4s-3-6.3-3-10.8v-0.5zm3.2 0.6c0 3.7 0.7 6.6 2.2 8.7s3.5 3.2 6.2 3.2c3.9 0 6.7-1.7 8.4-5.2v-13.5c-1.6-3.7-4.4-5.6-8.3-5.6-2.7 0-4.8 1.1-6.3 3.2-1.5 2-2.2 5.1-2.2 9.2z"/>
		<path class="st1" d="m536.6 95.9c0-0.6 0.2-1.1 0.6-1.5s0.9-0.6 1.6-0.6 1.2 0.2 1.6 0.6 0.6 0.9 0.6 1.5-0.2 1.1-0.6 1.5-0.9 0.6-1.6 0.6-1.2-0.2-1.6-0.6-0.6-0.9-0.6-1.5zm3.7 37.1h-3.2v-28.8h3.2v28.8z"/>
		<path class="st1" d="m568.8 133c-0.3-0.9-0.5-2.2-0.6-4-1.1 1.5-2.5 2.6-4.3 3.4s-3.6 1.2-5.5 1.2c-2.8 0-5-0.8-6.7-2.3s-2.6-3.5-2.6-5.9c0-2.8 1.2-5 3.5-6.6s5.6-2.4 9.7-2.4h5.8v-3.4c0-2.1-0.6-3.7-1.9-4.9s-3.1-1.8-5.5-1.8c-2.2 0-4.1 0.6-5.5 1.7s-2.2 2.5-2.2 4.1h-3.2c0-2.3 1.1-4.3 3.2-5.9 2.1-1.7 4.7-2.5 7.8-2.5 3.2 0 5.7 0.8 7.6 2.4s2.8 3.8 2.9 6.7v13.6c0 2.8 0.3 4.9 0.9 6.2v0.3h-3.4zm-10-2.3c2.1 0 4-0.5 5.7-1.5s2.9-2.4 3.7-4.1v-6.3h-5.7c-3.2 0-5.7 0.6-7.4 1.7s-2.7 2.7-2.7 4.6c0 1.6 0.6 3 1.8 4 1.1 1.1 2.7 1.6 4.6 1.6z"/>
		<path class="st1" d="m591.3 117.3h-12.7v-2.7h12.7v2.7z"/>
		<path class="st1" d="m616.8 133c-0.3-0.9-0.5-2.2-0.6-4-1.1 1.5-2.5 2.6-4.3 3.4-1.7 0.8-3.6 1.2-5.5 1.2-2.8 0-5-0.8-6.7-2.3s-2.6-3.5-2.6-5.9c0-2.8 1.2-5 3.5-6.6s5.6-2.4 9.8-2.4h5.8v-3.4c0-2.1-0.6-3.7-1.9-4.9s-3.1-1.8-5.5-1.8c-2.2 0-4.1 0.6-5.5 1.7-1.5 1.1-2.2 2.5-2.2 4.1h-3.2c0-2.3 1.1-4.3 3.2-5.9 2.1-1.7 4.7-2.5 7.8-2.5 3.2 0 5.7 0.8 7.6 2.4s2.8 3.8 2.9 6.7v13.6c0 2.8 0.3 4.9 0.9 6.2v0.3h-3.5zm-10-2.3c2.1 0 4-0.5 5.7-1.5s2.9-2.4 3.7-4.1v-6.3h-5.7c-3.2 0-5.7 0.6-7.4 1.7s-2.7 2.7-2.7 4.6c0 1.6 0.6 3 1.8 4 1.1 1.1 2.7 1.6 4.6 1.6z"/>
		<path class="st1" d="m639.3 117.3h-12.7v-2.7h12.7v2.7z"/>
		<path class="st1" d="m645.4 118.3c0-4.5 1-8 3-10.7s4.7-4 8.1-4c3.9 0 6.8 1.5 8.9 4.6v-16.1h3.2v40.9h-3l-0.1-3.8c-2 2.9-5 4.4-9 4.4-3.3 0-6-1.3-8-4s-3-6.3-3-10.8v-0.5zm3.2 0.6c0 3.7 0.7 6.6 2.2 8.7s3.5 3.2 6.2 3.2c3.9 0 6.7-1.7 8.4-5.2v-13.5c-1.6-3.7-4.4-5.6-8.3-5.6-2.7 0-4.8 1.1-6.3 3.2-1.4 2-2.2 5.1-2.2 9.2z"/>
		<path class="st1" d="m678.4 95.9c0-0.6 0.2-1.1 0.6-1.5s0.9-0.6 1.6-0.6 1.2 0.2 1.6 0.6 0.6 0.9 0.6 1.5-0.2 1.1-0.6 1.5-0.9 0.6-1.6 0.6-1.2-0.2-1.6-0.6-0.6-0.9-0.6-1.5zm3.7 37.1h-3.2v-28.8h3.2v28.8z"/>
		<path class="st1" d="m710.6 133c-0.3-0.9-0.5-2.2-0.6-4-1.1 1.5-2.5 2.6-4.3 3.4s-3.6 1.2-5.5 1.2c-2.8 0-5-0.8-6.7-2.3s-2.6-3.5-2.6-5.9c0-2.8 1.2-5 3.5-6.6s5.6-2.4 9.7-2.4h5.8v-3.4c0-2.1-0.6-3.7-1.9-4.9s-3.1-1.8-5.5-1.8c-2.2 0-4.1 0.6-5.5 1.7s-2.2 2.5-2.2 4.1h-3.2c0-2.3 1.1-4.3 3.2-5.9 2.1-1.7 4.7-2.5 7.8-2.5 3.2 0 5.7 0.8 7.6 2.4s2.8 3.8 2.9 6.7v13.6c0 2.8 0.3 4.9 0.9 6.2v0.3h-3.4zm-10-2.3c2.1 0 4-0.5 5.7-1.5s2.9-2.4 3.7-4.1v-6.3h-5.7c-3.2 0-5.7 0.6-7.4 1.7s-2.7 2.7-2.7 4.6c0 1.6 0.6 3 1.8 4 1.1 1.1 2.7 1.6 4.6 1.6z"/>
		<path class="st1" d="m722.9 131.1c0-0.6 0.2-1.1 0.6-1.6 0.4-0.4 1-0.7 1.7-0.7s1.3 0.2 1.7 0.7 0.6 1 0.6 1.6-0.2 1.1-0.6 1.5-1 0.6-1.7 0.6-1.3-0.2-1.7-0.6-0.6-0.9-0.6-1.5z"/>
</svg>
